<svg xmlns="http://www.w3.org/2000/svg" width="470" height="200" viewBox="0 0 470 200" role="img" aria-label="Beacon health card for martin-k-m/blink"><title>Beacon health card for martin-k-m/blink</title><rect x="0.5" y="0.5" width="469" height="199" rx="8" fill="#0d1117" stroke="#30363d"/><g transform="translate(20,20) scale(0.75)" fill="#f5b544" aria-hidden="true">
    <path d="M12 2l2.2 4.5-2.2 1.2-2.2-1.2L12 2z" opacity="0.9"/>
    <path d="M9.5 8.2h5l1.2 12.3a1 1 0 0 1-1 1.1H9.3a1 1 0 0 1-1-1.1L9.5 8.2z"/>
    <path d="M8.9 12.6h6.2l.2 2H8.7l.2-2z" fill="#0d1117" opacity="0.35"/>
  </g><text x="46" y="34" font-family="-apple-system,BlinkMacSystemFont,'Segoe UI',Helvetica,Arial,sans-serif" font-size="16" font-weight="700" fill="#e6edf3" text-anchor="start">martin-k-m/blink</text><text x="20" y="56" font-family="-apple-system,BlinkMacSystemFont,'Segoe UI',Helvetica,Arial,sans-serif" font-size="12" font-weight="400" fill="#8b949e" text-anchor="start">A fast, modern developer toolkit designed to simp…</text>
    <circle cx="396" cy="100" r="46" fill="none" stroke="#21262d" stroke-width="8"/>
    <circle cx="396" cy="100" r="46" fill="none" stroke="#d29922" stroke-width="8"
      stroke-linecap="round" stroke-dasharray="173.4 289.0"
      transform="rotate(-90 396 100)"/>
    <text x="396" y="109.982" font-family="-apple-system,BlinkMacSystemFont,'Segoe UI',Helvetica,Arial,sans-serif" font-size="28.52" font-weight="700" fill="#e6edf3" text-anchor="middle">60</text><rect x="377.6" y="154" width="36.8" height="20" rx="10" fill="#d29922" opacity="0.15"/><text x="396" y="168" font-family="-apple-system,BlinkMacSystemFont,'Segoe UI',Helvetica,Arial,sans-serif" font-size="12" font-weight="600" fill="#d29922" text-anchor="middle">Fair</text><text x="20" y="86" font-family="-apple-system,BlinkMacSystemFont,'Segoe UI',Helvetica,Arial,sans-serif" font-size="11" font-weight="400" fill="#8b949e" text-anchor="start">Activity</text><rect x="110" y="77" width="214" height="7" rx="3.5" fill="#21262d"/><rect x="110" y="77" width="149.8" height="7" rx="3.5" fill="#d29922"/><text x="332" y="86" font-family="ui-monospace,SFMono-Regular,'SF Mono',Menlo,Consolas,monospace" font-size="11" font-weight="600" fill="#e6edf3" text-anchor="start">70</text><text x="20" y="108" font-family="-apple-system,BlinkMacSystemFont,'Segoe UI',Helvetica,Arial,sans-serif" font-size="11" font-weight="400" fill="#8b949e" text-anchor="start">Community</text><rect x="110" y="99" width="214" height="7" rx="3.5" fill="#21262d"/><rect x="110" y="99" width="25.7" height="7" rx="3.5" fill="#f85149"/><text x="332" y="108" font-family="ui-monospace,SFMono-Regular,'SF Mono',Menlo,Consolas,monospace" font-size="11" font-weight="600" fill="#e6edf3" text-anchor="start">12</text><text x="20" y="130" font-family="-apple-system,BlinkMacSystemFont,'Segoe UI',Helvetica,Arial,sans-serif" font-size="11" font-weight="400" fill="#8b949e" text-anchor="start">Maintenance</text><rect x="110" y="121" width="214" height="7" rx="3.5" fill="#21262d"/><rect x="110" y="121" width="126.3" height="7" rx="3.5" fill="#db6d28"/><text x="332" y="130" font-family="ui-monospace,SFMono-Regular,'SF Mono',Menlo,Consolas,monospace" font-size="11" font-weight="600" fill="#e6edf3" text-anchor="start">59</text><text x="20" y="152" font-family="-apple-system,BlinkMacSystemFont,'Segoe UI',Helvetica,Arial,sans-serif" font-size="11" font-weight="400" fill="#8b949e" text-anchor="start">Docs</text><rect x="110" y="143" width="214" height="7" rx="3.5" fill="#21262d"/><rect x="110" y="143" width="203.3" height="7" rx="3.5" fill="#2ea043"/><text x="332" y="152" font-family="ui-monospace,SFMono-Regular,'SF Mono',Menlo,Consolas,monospace" font-size="11" font-weight="600" fill="#e6edf3" text-anchor="start">95</text><text x="20" y="174" font-family="-apple-system,BlinkMacSystemFont,'Segoe UI',Helvetica,Arial,sans-serif" font-size="11" font-weight="400" fill="#8b949e" text-anchor="start">Security</text><rect x="110" y="165" width="214" height="7" rx="3.5" fill="#21262d"/><rect x="110" y="165" width="149.8" height="7" rx="3.5" fill="#d29922"/><text x="332" y="174" font-family="ui-monospace,SFMono-Regular,'SF Mono',Menlo,Consolas,monospace" font-size="11" font-weight="600" fill="#e6edf3" text-anchor="start">70</text><text x="20" y="184" font-family="-apple-system,BlinkMacSystemFont,'Segoe UI',Helvetica,Arial,sans-serif" font-size="11" font-weight="400" fill="#8b949e" text-anchor="start">1 stars  ·  0 forks  ·  Rust  ·  updated 16m ago</text></svg>